<mxfile host="app.diagrams.net" agent="Mozilla/5.0 (Windows NT 10.0; Win64; x64) AppleWebKit/537.36 (KHTML, like Gecko) Chrome/133.0.0.0 Safari/537.36" version="26.1.0">
  <diagram name="Page-1" id="e7e014a7-5840-1c2e-5031-d8a46d1fe8dd">
    <mxGraphModel dx="1233" dy="520" grid="1" gridSize="10" guides="1" tooltips="1" connect="1" arrows="1" fold="1" page="1" pageScale="1" pageWidth="1169" pageHeight="826" background="none" math="0" shadow="0">
      <root>
        <mxCell id="0" />
        <mxCell id="1" parent="0" />
        <mxCell id="2" value="Admin" style="swimlane;whiteSpace=wrap" parent="1" vertex="1">
          <mxGeometry x="200" y="60" width="335.5" height="692" as="geometry" />
        </mxCell>
        <mxCell id="5" value="" style="ellipse;shape=startState;fillColor=#000000;strokeColor=#ff0000;" parent="2" vertex="1">
          <mxGeometry x="100" y="40" width="30" height="30" as="geometry" />
        </mxCell>
        <mxCell id="6" value="" style="edgeStyle=elbowEdgeStyle;elbow=horizontal;verticalAlign=bottom;endArrow=open;endSize=8;strokeColor=#FF0000;endFill=1;rounded=0" parent="2" source="5" edge="1">
          <mxGeometry x="100" y="40" as="geometry">
            <mxPoint x="114.5" y="110" as="targetPoint" />
          </mxGeometry>
        </mxCell>
        <mxCell id="12" value="" style="edgeStyle=elbowEdgeStyle;elbow=horizontal;strokeColor=#FF0000;endArrow=open;endFill=1;rounded=0" parent="2" edge="1">
          <mxGeometry width="100" height="100" relative="1" as="geometry">
            <mxPoint x="160" y="290" as="sourcePoint" />
            <mxPoint x="60" y="135" as="targetPoint" />
            <Array as="points">
              <mxPoint x="30" y="250" />
            </Array>
          </mxGeometry>
        </mxCell>
        <mxCell id="aCQhJny-bSC07MjqClqe-41" value="Chọn chức năng thêm sản phẩm" style="rounded=1;whiteSpace=wrap;html=1;" parent="2" vertex="1">
          <mxGeometry x="62.75" y="112" width="104.5" height="48" as="geometry" />
        </mxCell>
        <mxCell id="QQ0o55KebzAXswtu3gOk-20" value="Yêu cầu đăng nhập" style="rounded=1;whiteSpace=wrap;html=1;" parent="2" vertex="1">
          <mxGeometry x="62.5" y="192" width="107.5" height="48" as="geometry" />
        </mxCell>
        <mxCell id="QQ0o55KebzAXswtu3gOk-25" value="Nhập thông tin sản phẩm mới" style="rounded=1;whiteSpace=wrap;html=1;" parent="2" vertex="1">
          <mxGeometry x="65.25" y="272" width="99.5" height="55" as="geometry" />
        </mxCell>
        <mxCell id="QQ0o55KebzAXswtu3gOk-48" value="Reset form" style="rounded=1;whiteSpace=wrap;html=1;" parent="2" vertex="1">
          <mxGeometry x="170" y="600" width="95.5" height="50" as="geometry" />
        </mxCell>
        <mxCell id="QQ0o55KebzAXswtu3gOk-49" value="" style="endArrow=classic;html=1;rounded=0;exitX=0;exitY=0.5;exitDx=0;exitDy=0;entryX=0;entryY=1;entryDx=0;entryDy=0;" parent="2" source="QQ0o55KebzAXswtu3gOk-48" target="QQ0o55KebzAXswtu3gOk-25" edge="1">
          <mxGeometry width="50" height="50" relative="1" as="geometry">
            <mxPoint x="140" y="625" as="sourcePoint" />
            <mxPoint x="35.5" y="300" as="targetPoint" />
            <Array as="points">
              <mxPoint x="65.5" y="625" />
            </Array>
          </mxGeometry>
        </mxCell>
        <mxCell id="QQ0o55KebzAXswtu3gOk-50" value="Thông báo lỗi và yêu cầu chỉnh sửa thông tin" style="rounded=1;whiteSpace=wrap;html=1;" parent="2" vertex="1">
          <mxGeometry x="121.5" y="420" width="92.5" height="54" as="geometry" />
        </mxCell>
        <mxCell id="QQ0o55KebzAXswtu3gOk-51" value="" style="endArrow=classic;html=1;rounded=0;entryX=0.25;entryY=1;entryDx=0;entryDy=0;exitX=0;exitY=0.25;exitDx=0;exitDy=0;" parent="2" source="QQ0o55KebzAXswtu3gOk-50" target="QQ0o55KebzAXswtu3gOk-25" edge="1">
          <mxGeometry width="50" height="50" relative="1" as="geometry">
            <mxPoint x="65.5" y="440" as="sourcePoint" />
            <mxPoint x="115.5" y="390" as="targetPoint" />
            <Array as="points">
              <mxPoint x="90.5" y="434" />
            </Array>
          </mxGeometry>
        </mxCell>
        <mxCell id="3" value="System" style="swimlane;whiteSpace=wrap" parent="1" vertex="1">
          <mxGeometry x="535.5" y="60" width="330" height="692" as="geometry" />
        </mxCell>
        <mxCell id="QQ0o55KebzAXswtu3gOk-15" value="Kiểm tra đăng nhập" style="rounded=1;whiteSpace=wrap;html=1;" parent="3" vertex="1">
          <mxGeometry x="40" y="112" width="90" height="44" as="geometry" />
        </mxCell>
        <mxCell id="QQ0o55KebzAXswtu3gOk-16" value="Tài khoản" style="rounded=0;whiteSpace=wrap;html=1;" parent="3" vertex="1">
          <mxGeometry x="160" y="42" width="80" height="48" as="geometry" />
        </mxCell>
        <mxCell id="QQ0o55KebzAXswtu3gOk-17" value="" style="html=1;labelBackgroundColor=#ffffff;startArrow=none;startFill=0;startSize=6;endArrow=classic;endFill=1;endSize=6;jettySize=auto;orthogonalLoop=1;strokeWidth=1;dashed=1;fontSize=14;rounded=0;entryX=0.5;entryY=0;entryDx=0;entryDy=0;exitX=0;exitY=0.5;exitDx=0;exitDy=0;" parent="3" source="QQ0o55KebzAXswtu3gOk-16" target="QQ0o55KebzAXswtu3gOk-15" edge="1">
          <mxGeometry width="60" height="60" relative="1" as="geometry">
            <mxPoint x="80" y="102" as="sourcePoint" />
            <mxPoint x="140" y="42" as="targetPoint" />
            <Array as="points" />
          </mxGeometry>
        </mxCell>
        <mxCell id="QQ0o55KebzAXswtu3gOk-18" value="" style="rhombus;whiteSpace=wrap;html=1;" parent="3" vertex="1">
          <mxGeometry x="52" y="192" width="65" height="48" as="geometry" />
        </mxCell>
        <mxCell id="QQ0o55KebzAXswtu3gOk-19" value="" style="endArrow=classic;html=1;rounded=0;entryX=0.5;entryY=0;entryDx=0;entryDy=0;exitX=0.5;exitY=1;exitDx=0;exitDy=0;" parent="3" source="QQ0o55KebzAXswtu3gOk-15" target="QQ0o55KebzAXswtu3gOk-18" edge="1">
          <mxGeometry width="50" height="50" relative="1" as="geometry">
            <mxPoint x="160" y="222" as="sourcePoint" />
            <mxPoint x="210" y="172" as="targetPoint" />
          </mxGeometry>
        </mxCell>
        <mxCell id="QQ0o55KebzAXswtu3gOk-23" value="Sai" style="text;html=1;align=center;verticalAlign=middle;resizable=0;points=[];autosize=1;strokeColor=none;fillColor=none;" parent="3" vertex="1">
          <mxGeometry x="20" y="192" width="40" height="30" as="geometry" />
        </mxCell>
        <mxCell id="QQ0o55KebzAXswtu3gOk-24" value="" style="endArrow=classic;html=1;rounded=0;exitX=0.5;exitY=1;exitDx=0;exitDy=0;entryX=1;entryY=0.5;entryDx=0;entryDy=0;" parent="3" source="QQ0o55KebzAXswtu3gOk-18" edge="1">
          <mxGeometry width="50" height="50" relative="1" as="geometry">
            <mxPoint x="84.25" y="240" as="sourcePoint" />
            <mxPoint x="-171" y="299.5" as="targetPoint" />
            <Array as="points">
              <mxPoint x="85" y="302" />
            </Array>
          </mxGeometry>
        </mxCell>
        <mxCell id="QQ0o55KebzAXswtu3gOk-28" value="Kiểm tra thông tin sản phẩm" style="rounded=1;whiteSpace=wrap;html=1;" parent="3" vertex="1">
          <mxGeometry x="95" y="342" width="105" height="53" as="geometry" />
        </mxCell>
        <mxCell id="QQ0o55KebzAXswtu3gOk-29" value="Sản phẩm" style="rounded=0;whiteSpace=wrap;html=1;" parent="3" vertex="1">
          <mxGeometry x="190" y="272" width="90" height="43" as="geometry" />
        </mxCell>
        <mxCell id="QQ0o55KebzAXswtu3gOk-31" value="" style="html=1;labelBackgroundColor=#ffffff;startArrow=none;startFill=0;startSize=6;endArrow=classic;endFill=1;endSize=6;jettySize=auto;orthogonalLoop=1;strokeWidth=1;dashed=1;fontSize=14;rounded=0;entryX=0.5;entryY=0;entryDx=0;entryDy=0;exitX=0;exitY=0.5;exitDx=0;exitDy=0;" parent="3" source="QQ0o55KebzAXswtu3gOk-29" target="QQ0o55KebzAXswtu3gOk-28" edge="1">
          <mxGeometry width="60" height="60" relative="1" as="geometry">
            <mxPoint x="202.5" y="212" as="sourcePoint" />
            <mxPoint x="127.5" y="258" as="targetPoint" />
            <Array as="points" />
          </mxGeometry>
        </mxCell>
        <mxCell id="QQ0o55KebzAXswtu3gOk-32" value="" style="rhombus;whiteSpace=wrap;html=1;" parent="3" vertex="1">
          <mxGeometry x="116.5" y="422" width="62" height="48" as="geometry" />
        </mxCell>
        <mxCell id="QQ0o55KebzAXswtu3gOk-33" value="" style="endArrow=classic;html=1;rounded=0;entryX=0.5;entryY=0;entryDx=0;entryDy=0;exitX=0.5;exitY=1;exitDx=0;exitDy=0;" parent="3" source="QQ0o55KebzAXswtu3gOk-28" target="QQ0o55KebzAXswtu3gOk-32" edge="1">
          <mxGeometry width="50" height="50" relative="1" as="geometry">
            <mxPoint x="30" y="482" as="sourcePoint" />
            <mxPoint x="80" y="432" as="targetPoint" />
          </mxGeometry>
        </mxCell>
        <mxCell id="QQ0o55KebzAXswtu3gOk-34" value="Thêm sản phẩm mới" style="rounded=1;whiteSpace=wrap;html=1;" parent="3" vertex="1">
          <mxGeometry x="117" y="502" width="62" height="58" as="geometry" />
        </mxCell>
        <mxCell id="QQ0o55KebzAXswtu3gOk-35" value="" style="endArrow=classic;html=1;rounded=0;entryX=0.5;entryY=0;entryDx=0;entryDy=0;exitX=0.5;exitY=1;exitDx=0;exitDy=0;" parent="3" source="QQ0o55KebzAXswtu3gOk-32" target="QQ0o55KebzAXswtu3gOk-34" edge="1">
          <mxGeometry width="50" height="50" relative="1" as="geometry">
            <mxPoint x="30" y="522" as="sourcePoint" />
            <mxPoint x="80" y="472" as="targetPoint" />
          </mxGeometry>
        </mxCell>
        <mxCell id="QQ0o55KebzAXswtu3gOk-37" value="Sản phẩm" style="rounded=0;whiteSpace=wrap;html=1;" parent="3" vertex="1">
          <mxGeometry x="230" y="452" width="70" height="45" as="geometry" />
        </mxCell>
        <mxCell id="QQ0o55KebzAXswtu3gOk-38" value="" style="html=1;labelBackgroundColor=#ffffff;startArrow=none;startFill=0;startSize=6;endArrow=classic;endFill=1;endSize=6;jettySize=auto;orthogonalLoop=1;strokeWidth=1;dashed=1;fontSize=14;rounded=0;entryX=0;entryY=0.5;entryDx=0;entryDy=0;exitX=1;exitY=0;exitDx=0;exitDy=0;" parent="3" source="QQ0o55KebzAXswtu3gOk-34" target="QQ0o55KebzAXswtu3gOk-37" edge="1">
          <mxGeometry width="60" height="60" relative="1" as="geometry">
            <mxPoint x="200" y="304" as="sourcePoint" />
            <mxPoint x="158" y="352" as="targetPoint" />
            <Array as="points" />
          </mxGeometry>
        </mxCell>
        <mxCell id="QQ0o55KebzAXswtu3gOk-39" value="" style="endArrow=classic;html=1;rounded=0;exitX=0.5;exitY=1;exitDx=0;exitDy=0;entryX=0.5;entryY=0;entryDx=0;entryDy=0;" parent="3" source="QQ0o55KebzAXswtu3gOk-34" target="QQ0o55KebzAXswtu3gOk-41" edge="1">
          <mxGeometry width="50" height="50" relative="1" as="geometry">
            <mxPoint x="60" y="612" as="sourcePoint" />
            <mxPoint x="150" y="602" as="targetPoint" />
          </mxGeometry>
        </mxCell>
        <mxCell id="QQ0o55KebzAXswtu3gOk-41" value="Thông báo thêm thành công" style="rounded=1;whiteSpace=wrap;html=1;" parent="3" vertex="1">
          <mxGeometry x="170" y="602" width="91" height="38" as="geometry" />
        </mxCell>
        <mxCell id="QQ0o55KebzAXswtu3gOk-42" value="" style="endArrow=classic;html=1;rounded=0;exitX=1;exitY=0.5;exitDx=0;exitDy=0;entryX=0.5;entryY=1;entryDx=0;entryDy=0;" parent="3" source="QQ0o55KebzAXswtu3gOk-41" target="QQ0o55KebzAXswtu3gOk-43" edge="1">
          <mxGeometry width="50" height="50" relative="1" as="geometry">
            <mxPoint x="250" y="606" as="sourcePoint" />
            <mxPoint x="300" y="556" as="targetPoint" />
            <Array as="points">
              <mxPoint x="295" y="621" />
            </Array>
          </mxGeometry>
        </mxCell>
        <mxCell id="QQ0o55KebzAXswtu3gOk-43" value="" style="ellipse;html=1;shape=endState;fillColor=#000000;strokeColor=#ff0000;" parent="3" vertex="1">
          <mxGeometry x="280" y="530" width="30" height="30" as="geometry" />
        </mxCell>
        <mxCell id="QQ0o55KebzAXswtu3gOk-46" value="Sai" style="text;html=1;align=center;verticalAlign=middle;resizable=0;points=[];autosize=1;strokeColor=none;fillColor=none;" parent="3" vertex="1">
          <mxGeometry x="76.5" y="410" width="40" height="30" as="geometry" />
        </mxCell>
        <mxCell id="QQ0o55KebzAXswtu3gOk-47" value="Thêm&lt;div&gt;sản phẩm&lt;/div&gt;&lt;div&gt;mới&lt;/div&gt;" style="endArrow=classic;html=1;rounded=0;exitX=0;exitY=0.5;exitDx=0;exitDy=0;" parent="3" source="QQ0o55KebzAXswtu3gOk-41" edge="1">
          <mxGeometry width="50" height="50" relative="1" as="geometry">
            <mxPoint x="150" y="630" as="sourcePoint" />
            <mxPoint x="-70" y="620" as="targetPoint" />
          </mxGeometry>
        </mxCell>
        <mxCell id="QQ0o55KebzAXswtu3gOk-14" value="" style="endArrow=classic;html=1;rounded=0;exitX=1;exitY=0.5;exitDx=0;exitDy=0;entryX=0;entryY=0.5;entryDx=0;entryDy=0;" parent="1" source="aCQhJny-bSC07MjqClqe-41" target="QQ0o55KebzAXswtu3gOk-15" edge="1">
          <mxGeometry width="50" height="50" relative="1" as="geometry">
            <mxPoint x="375.5" y="210" as="sourcePoint" />
            <mxPoint x="615.5" y="204" as="targetPoint" />
          </mxGeometry>
        </mxCell>
        <mxCell id="QQ0o55KebzAXswtu3gOk-21" value="" style="endArrow=classic;html=1;rounded=0;entryX=1;entryY=0.5;entryDx=0;entryDy=0;exitX=0;exitY=0.5;exitDx=0;exitDy=0;" parent="1" source="QQ0o55KebzAXswtu3gOk-18" target="QQ0o55KebzAXswtu3gOk-20" edge="1">
          <mxGeometry width="50" height="50" relative="1" as="geometry">
            <mxPoint x="425.5" y="330" as="sourcePoint" />
            <mxPoint x="475.5" y="280" as="targetPoint" />
          </mxGeometry>
        </mxCell>
        <mxCell id="QQ0o55KebzAXswtu3gOk-22" value="" style="endArrow=classic;html=1;rounded=0;exitX=1;exitY=0.5;exitDx=0;exitDy=0;entryX=0;entryY=0.5;entryDx=0;entryDy=0;" parent="1" source="QQ0o55KebzAXswtu3gOk-20" target="QQ0o55KebzAXswtu3gOk-15" edge="1">
          <mxGeometry width="50" height="50" relative="1" as="geometry">
            <mxPoint x="385.5" y="290" as="sourcePoint" />
            <mxPoint x="435.5" y="240" as="targetPoint" />
          </mxGeometry>
        </mxCell>
        <mxCell id="QQ0o55KebzAXswtu3gOk-26" value="Đúng" style="text;html=1;align=center;verticalAlign=middle;resizable=0;points=[];autosize=1;strokeColor=none;fillColor=none;" parent="1" vertex="1">
          <mxGeometry x="570.5" y="338" width="50" height="30" as="geometry" />
        </mxCell>
        <mxCell id="QQ0o55KebzAXswtu3gOk-27" value="" style="endArrow=classic;html=1;rounded=0;exitX=0.5;exitY=1;exitDx=0;exitDy=0;entryX=0;entryY=0.5;entryDx=0;entryDy=0;" parent="1" source="QQ0o55KebzAXswtu3gOk-25" target="QQ0o55KebzAXswtu3gOk-28" edge="1">
          <mxGeometry width="50" height="50" relative="1" as="geometry">
            <mxPoint x="285.5" y="480" as="sourcePoint" />
            <mxPoint x="315.5" y="440" as="targetPoint" />
            <Array as="points">
              <mxPoint x="315.5" y="430" />
            </Array>
          </mxGeometry>
        </mxCell>
        <mxCell id="QQ0o55KebzAXswtu3gOk-44" value="Đúng" style="text;html=1;align=center;verticalAlign=middle;resizable=0;points=[];autosize=1;strokeColor=none;fillColor=none;" parent="1" vertex="1">
          <mxGeometry x="640.5" y="518" width="50" height="30" as="geometry" />
        </mxCell>
        <mxCell id="QQ0o55KebzAXswtu3gOk-45" value="" style="endArrow=classic;html=1;rounded=0;exitX=0;exitY=0.5;exitDx=0;exitDy=0;entryX=1;entryY=0.5;entryDx=0;entryDy=0;" parent="1" source="QQ0o55KebzAXswtu3gOk-32" target="QQ0o55KebzAXswtu3gOk-50" edge="1">
          <mxGeometry width="50" height="50" relative="1" as="geometry">
            <mxPoint x="445.5" y="570" as="sourcePoint" />
            <mxPoint x="455.5" y="506" as="targetPoint" />
          </mxGeometry>
        </mxCell>
      </root>
    </mxGraphModel>
  </diagram>
</mxfile>
